<svg id="instagram" xmlns="http://www.w3.org/2000/svg" width="14.189" height="14.192" viewBox="0 0 14.189 14.192">
  <path id="Path_37" data-name="Path 37" d="M14.6,4.173a5.186,5.186,0,0,0-.33-1.722A3.635,3.635,0,0,0,12.2.374a5.2,5.2,0,0,0-1.722-.33C9.714.008,9.473,0,7.546,0S5.378.008,4.621.042A5.187,5.187,0,0,0,2.9.372a3.463,3.463,0,0,0-1.259.821A3.494,3.494,0,0,0,.823,2.448,5.2,5.2,0,0,0,.493,4.17c-.036.76-.044,1-.044,2.928S.457,9.265.49,10.022a5.186,5.186,0,0,0,.33,1.722A3.635,3.635,0,0,0,2.9,13.821a5.2,5.2,0,0,0,1.722.33c.757.033,1,.042,2.925.042s2.168-.008,2.925-.042a5.184,5.184,0,0,0,1.722-.33,3.63,3.63,0,0,0,2.077-2.076,5.2,5.2,0,0,0,.33-1.722c.033-.757.042-1,.042-2.925s0-2.168-.036-2.925ZM13.324,9.967a3.89,3.89,0,0,1-.244,1.317,2.354,2.354,0,0,1-1.347,1.347,3.9,3.9,0,0,1-1.317.244c-.749.033-.973.042-2.867.042s-2.121-.008-2.867-.042a3.888,3.888,0,0,1-1.317-.244,2.184,2.184,0,0,1-.815-.53,2.206,2.206,0,0,1-.53-.815A3.9,3.9,0,0,1,1.777,9.97C1.743,9.221,1.735,9,1.735,7.1s.008-2.121.042-2.867a3.888,3.888,0,0,1,.244-1.317A2.157,2.157,0,0,1,2.553,2.1a2.2,2.2,0,0,1,.815-.529,3.906,3.906,0,0,1,1.317-.244c.749-.033.973-.042,2.867-.042s2.121.008,2.867.042a3.89,3.89,0,0,1,1.317.244,2.182,2.182,0,0,1,.815.529,2.206,2.206,0,0,1,.53.815,3.906,3.906,0,0,1,.244,1.317c.033.749.042.973.042,2.867s-.008,2.115-.042,2.864Zm0,0" transform="translate(-0.449 0)" fill="#616161"/>
  <path id="Path_38" data-name="Path 38" d="M128.595,124.5a3.646,3.646,0,1,0,3.646,3.646A3.647,3.647,0,0,0,128.595,124.5Zm0,6.011a2.365,2.365,0,1,1,2.365-2.365A2.365,2.365,0,0,1,128.595,130.511Zm0,0" transform="translate(-121.497 -121.048)" fill="#616161"/>
  <path id="Path_39" data-name="Path 39" d="M364.152,89.453a.851.851,0,1,1-.851-.851A.851.851,0,0,1,364.152,89.453Zm0,0" transform="translate(-352.414 -86.145)" fill="#616161"/>
</svg>
