<svg xmlns="http://www.w3.org/2000/svg" width="20" height="20" viewBox="0 0 20 20">
  <g id="Layer_2" data-name="Layer 2" transform="translate(-0.747 -0.747)">
    <g id="pin" transform="translate(0.747 0.747)">
      <rect id="Rectangle_28" data-name="Rectangle 28" width="20" height="20" transform="translate(0)" fill="#b2b2b2" opacity="0"/>
      <path id="Path_37" data-name="Path 37" d="M10.865,2A6.816,6.816,0,0,0,4,8.7c0,4.633,6.049,9.791,6.307,10.011a.868.868,0,0,0,1.115,0c.3-.22,6.307-5.378,6.307-10.012A6.816,6.816,0,0,0,10.865,2Zm0,9.3a2.96,2.96,0,1,1,3-2.96,2.982,2.982,0,0,1-3,2.96Z" transform="translate(-0.98 -0.571)" fill="#b2b2b2"/>
    </g>
  </g>
</svg>
