<svg xmlns="http://www.w3.org/2000/svg" width="20" height="20" viewBox="0 0 20 20">
  <g id="Layer_2" data-name="Layer 2" transform="translate(-0.058 -0.057)">
    <g id="phone" transform="translate(0.058 0.057)">
      <rect id="Rectangle_39" data-name="Rectangle 39" width="20" height="20" fill="#b2b2b2" opacity="0"/>
      <path id="Path_45" data-name="Path 45" d="M13.835,17.352A11.844,11.844,0,0,1,2,5.531,3.533,3.533,0,0,1,5.535,2a3.031,3.031,0,0,1,.592.054,2.916,2.916,0,0,1,.553.138.768.768,0,0,1,.5.576L8.233,7.373a.767.767,0,0,1-.2.706c-.1.107-.108.115-1.053.606a7.612,7.612,0,0,0,3.743,3.754c.5-.952.507-.96.615-1.059a.769.769,0,0,1,.707-.2l4.611,1.052a.768.768,0,0,1,.553.5,3.328,3.328,0,0,1,.146.56,3.657,3.657,0,0,1,.046.583A3.533,3.533,0,0,1,13.835,17.352Z" transform="translate(0.324 0.324)" fill="#b2b2b2"/>
    </g>
  </g>
</svg>
