<svg xmlns="http://www.w3.org/2000/svg" width="33" height="33" viewBox="0 0 33 33">
  <g id="Layer_2" data-name="Layer 2" transform="translate(0.016 0.016)">
    <g id="phone" transform="translate(-0.016 -0.016)">
      <rect id="Rectangle_39" data-name="Rectangle 39" width="33" height="33" fill="#67d4fb" opacity="0"/>
      <path id="Path_45" data-name="Path 45" d="M21.074,26.737A19.086,19.086,0,0,1,2,7.689,5.693,5.693,0,0,1,7.7,2a4.887,4.887,0,0,1,.954.087,4.7,4.7,0,0,1,.892.223,1.237,1.237,0,0,1,.805.928l1.7,7.421a1.236,1.236,0,0,1-.322,1.138c-.161.173-.173.186-1.7.977a12.266,12.266,0,0,0,6.032,6.048c.805-1.534.817-1.546.991-1.707a1.24,1.24,0,0,1,1.14-.322l7.432,1.694a1.238,1.238,0,0,1,.892.8,5.362,5.362,0,0,1,.235.9,5.892,5.892,0,0,1,.074.94A5.694,5.694,0,0,1,21.074,26.737Z" transform="translate(2.131 2.132)" fill="#67d4fb"/>
    </g>
  </g>
</svg>
