<svg xmlns="http://www.w3.org/2000/svg" width="15.291" height="15.365" viewBox="0 0 15.291 15.365">
  <path id="whatsapp" d="M13.313,2.233A7.615,7.615,0,0,0,1.33,11.419L.25,15.365l4.036-1.059a7.606,7.606,0,0,0,3.638.927h0a7.617,7.617,0,0,0,5.386-13ZM7.927,13.947h0A6.32,6.32,0,0,1,4.7,13.065l-.231-.137-2.4.628.639-2.335-.151-.239a6.328,6.328,0,1,1,5.361,2.966ZM11.4,9.207c-.19-.1-1.126-.555-1.3-.619s-.3-.1-.428.1-.491.619-.6.746-.222.143-.412.048a5.2,5.2,0,0,1-1.53-.944A5.738,5.738,0,0,1,6.068,7.215c-.111-.191,0-.284.083-.388a5.381,5.381,0,0,0,.476-.651.35.35,0,0,0-.016-.333c-.047-.1-.428-1.032-.586-1.413S5.713,4.11,5.6,4.1,5.359,4.1,5.232,4.1a.7.7,0,0,0-.507.238,2.134,2.134,0,0,0-.666,1.587A3.7,3.7,0,0,0,4.836,7.89a8.48,8.48,0,0,0,3.25,2.872,10.89,10.89,0,0,0,1.085.4,2.608,2.608,0,0,0,1.2.075,1.96,1.96,0,0,0,1.284-.9,1.59,1.59,0,0,0,.111-.9c-.047-.079-.174-.127-.365-.222Zm0,0" transform="translate(-0.25)" fill="#616161" fill-rule="evenodd"/>
</svg>
